M48
;DRILL file {KiCad no-vcs-found-8c7175b~60~ubuntu16.04.1} date Wed Sep 13 21:37:48 2017
;FORMAT={-:-/ absolute / metric / decimal}
FMAT,2
METRIC,TZ
T1C0.800
T2C1.000
T3C1.001
T4C1.016
T5C1.500
T6C3.200
T7C2.000
%
G90
G05
M71
T1
X115.5Y-78.
X115.5Y-85.62
X125.88Y-90.
X133.5Y-90.
X137.5Y-89.
X137.5Y-96.62
X126.5Y-78.
X131.5Y-78.
X142.Y-89.
X142.Y-96.62
X104.Y-81.
X104.Y-83.54
X104.Y-86.08
X100.38Y-78.
X108.Y-78.
X100.38Y-89.
X108.Y-89.
X127.5Y-84.
X130.Y-84.
X115.5Y-80.54
X115.5Y-83.08
X123.12Y-78.
X123.12Y-80.54
X123.12Y-83.08
X123.12Y-85.62
X111.Y-78.
X111.Y-83.
X118.Y-91.
X120.5Y-91.
X128.5Y-94.
X133.5Y-94.
T2
X103.Y-74.
X105.5Y-74.
X108.Y-74.
X123.Y-74.
X125.5Y-74.
X128.Y-74.
T3
X146.Y-84.
X146.Y-86.54
T4
X137.5Y-83.
X137.5Y-85.54
T5
X125.Y-105.
X79.Y-68.
X79.Y-74.35
X79.Y-80.7
X95.23Y-68.
X95.23Y-74.35
X95.23Y-80.7
X136.5Y-70.
X139.7Y-79.05
X141.1Y-76.65
X144.2Y-69.45
X147.5Y-74.
X125.Y-99.
T6
X146.Y-106.
X74.Y-106.
X146.Y-64.
X74.Y-64.
T7
X101.1Y-67.
X109.9Y-67.
X121.1Y-67.
X129.9Y-67.
T0
M30
