G04 #@! TF.GenerationSoftware,KiCad,Pcbnew,no-vcs-found-8c7175b~60~ubuntu16.04.1*
G04 #@! TF.CreationDate,2017-09-13T21:37:39+02:00*
G04 #@! TF.ProjectId,ruby,727562792E6B696361645F7063620000,rev?*
G04 #@! TF.SameCoordinates,Original*
G04 #@! TF.FileFunction,Soldermask,Bot*
G04 #@! TF.FilePolarity,Negative*
%FSLAX46Y46*%
G04 Gerber Fmt 4.6, Leading zero omitted, Abs format (unit mm)*
G04 Created by KiCad (PCBNEW no-vcs-found-8c7175b~60~ubuntu16.04.1) date Wed Sep 13 21:37:39 2017*
%MOMM*%
%LPD*%
G01*
G04 APERTURE LIST*
%ADD10C,2.200000*%
%ADD11C,4.400000*%
%ADD12C,6.000000*%
%ADD13C,3.400000*%
%ADD14C,2.000000*%
%ADD15R,2.000000X2.000000*%
%ADD16R,3.400000X3.400000*%
%ADD17R,1.920000X1.920000*%
%ADD18C,1.920000*%
%ADD19O,2.000000X2.000000*%
%ADD20O,2.432000X2.432000*%
%ADD21R,2.432000X2.432000*%
%ADD22C,2.900000*%
%ADD23C,2.300000*%
%ADD24R,2.400000X2.300000*%
G04 APERTURE END LIST*
D10*
X123000000Y-74000000D03*
X125500000Y-74000000D03*
X128000000Y-74000000D03*
D11*
X121100000Y-67000000D03*
X129900000Y-67000000D03*
X109900000Y-67000000D03*
X101100000Y-67000000D03*
D10*
X108000000Y-74000000D03*
X105500000Y-74000000D03*
X103000000Y-74000000D03*
D12*
X146000000Y-64000000D03*
X146000000Y-106000000D03*
X74000000Y-106000000D03*
X74000000Y-64000000D03*
D13*
X79000000Y-68000000D03*
X79000000Y-80700000D03*
X79000000Y-74350000D03*
X95230000Y-68000000D03*
X95230000Y-80700000D03*
X95230000Y-74350000D03*
D14*
X111000000Y-83000000D03*
X111000000Y-78000000D03*
X118000000Y-91000000D03*
D15*
X120500000Y-91000000D03*
D14*
X126500000Y-78000000D03*
X131500000Y-78000000D03*
X133500000Y-94000000D03*
X128500000Y-94000000D03*
X130000000Y-84000000D03*
D15*
X127500000Y-84000000D03*
D16*
X125000000Y-99000000D03*
D13*
X125000000Y-105000000D03*
D17*
X104000000Y-81000000D03*
D18*
X104000000Y-86080000D03*
X104000000Y-83540000D03*
D19*
X100380000Y-89000000D03*
D14*
X108000000Y-89000000D03*
X108000000Y-78000000D03*
D19*
X100380000Y-78000000D03*
D14*
X125880000Y-90000000D03*
D19*
X133500000Y-90000000D03*
X137500000Y-96620000D03*
D14*
X137500000Y-89000000D03*
D19*
X123120000Y-78000000D03*
X115500000Y-85620000D03*
X123120000Y-80540000D03*
X115500000Y-83080000D03*
X123120000Y-83080000D03*
X115500000Y-80540000D03*
X123120000Y-85620000D03*
D15*
X115500000Y-78000000D03*
D20*
X137500000Y-85540000D03*
D21*
X137500000Y-83000000D03*
D22*
X147500000Y-74000000D03*
X144200000Y-69450000D03*
X136500000Y-70000000D03*
X139700000Y-79050000D03*
X141100000Y-76650000D03*
D23*
X146000000Y-84000000D03*
D24*
X146000000Y-86540000D03*
D19*
X142000000Y-96620000D03*
D14*
X142000000Y-89000000D03*
M02*
