G04 #@! TF.GenerationSoftware,KiCad,Pcbnew,no-vcs-found-8c7175b~60~ubuntu16.04.1*
G04 #@! TF.CreationDate,2017-09-13T21:37:39+02:00*
G04 #@! TF.ProjectId,ruby,727562792E6B696361645F7063620000,rev?*
G04 #@! TF.SameCoordinates,Original*
G04 #@! TF.FileFunction,Copper,L2,Bot,Signal*
G04 #@! TF.FilePolarity,Positive*
%FSLAX46Y46*%
G04 Gerber Fmt 4.6, Leading zero omitted, Abs format (unit mm)*
G04 Created by KiCad (PCBNEW no-vcs-found-8c7175b~60~ubuntu16.04.1) date Wed Sep 13 21:37:39 2017*
%MOMM*%
%LPD*%
G01*
G04 APERTURE LIST*
%ADD10C,1.800000*%
%ADD11C,4.000000*%
%ADD12C,5.600000*%
%ADD13C,3.000000*%
%ADD14C,1.600000*%
%ADD15R,1.600000X1.600000*%
%ADD16R,3.000000X3.000000*%
%ADD17R,1.520000X1.520000*%
%ADD18C,1.520000*%
%ADD19O,1.600000X1.600000*%
%ADD20O,2.032000X2.032000*%
%ADD21R,2.032000X2.032000*%
%ADD22C,2.500000*%
%ADD23C,1.900000*%
%ADD24R,2.000000X1.900000*%
%ADD25C,1.000000*%
%ADD26C,2.000000*%
G04 APERTURE END LIST*
D10*
X123000000Y-74000000D03*
X125500000Y-74000000D03*
X128000000Y-74000000D03*
D11*
X121100000Y-67000000D03*
X129900000Y-67000000D03*
X109900000Y-67000000D03*
X101100000Y-67000000D03*
D10*
X108000000Y-74000000D03*
X105500000Y-74000000D03*
X103000000Y-74000000D03*
D12*
X146000000Y-64000000D03*
X146000000Y-106000000D03*
X74000000Y-106000000D03*
X74000000Y-64000000D03*
D13*
X79000000Y-68000000D03*
X79000000Y-80700000D03*
X79000000Y-74350000D03*
X95230000Y-68000000D03*
X95230000Y-80700000D03*
X95230000Y-74350000D03*
D14*
X111000000Y-83000000D03*
X111000000Y-78000000D03*
X118000000Y-91000000D03*
D15*
X120500000Y-91000000D03*
D14*
X126500000Y-78000000D03*
X131500000Y-78000000D03*
X133500000Y-94000000D03*
X128500000Y-94000000D03*
X130000000Y-84000000D03*
D15*
X127500000Y-84000000D03*
D16*
X125000000Y-99000000D03*
D13*
X125000000Y-105000000D03*
D17*
X104000000Y-81000000D03*
D18*
X104000000Y-86080000D03*
X104000000Y-83540000D03*
D19*
X100380000Y-89000000D03*
D14*
X108000000Y-89000000D03*
X108000000Y-78000000D03*
D19*
X100380000Y-78000000D03*
D14*
X125880000Y-90000000D03*
D19*
X133500000Y-90000000D03*
X137500000Y-96620000D03*
D14*
X137500000Y-89000000D03*
D19*
X123120000Y-78000000D03*
X115500000Y-85620000D03*
X123120000Y-80540000D03*
X115500000Y-83080000D03*
X123120000Y-83080000D03*
X115500000Y-80540000D03*
X123120000Y-85620000D03*
D15*
X115500000Y-78000000D03*
D20*
X137500000Y-85540000D03*
D21*
X137500000Y-83000000D03*
D22*
X147500000Y-74000000D03*
X144200000Y-69450000D03*
X136500000Y-70000000D03*
X139700000Y-79050000D03*
X141100000Y-76650000D03*
D23*
X146000000Y-84000000D03*
D24*
X146000000Y-86540000D03*
D19*
X142000000Y-96620000D03*
D14*
X142000000Y-89000000D03*
D25*
X117800000Y-79600000D02*
X117800000Y-80780000D01*
X131500000Y-78000000D02*
X129500000Y-76000000D01*
X129500000Y-76000000D02*
X121400000Y-76000000D01*
X121400000Y-76000000D02*
X117800000Y-79600000D01*
X117800000Y-80780000D02*
X115500000Y-83080000D01*
X114200000Y-108000000D02*
X110000000Y-103800000D01*
X110000000Y-103800000D02*
X110000000Y-99000000D01*
X129800000Y-108000000D02*
X114200000Y-108000000D01*
X134200000Y-103600000D02*
X129800000Y-108000000D01*
X135020000Y-103600000D02*
X134200000Y-103600000D01*
X142000000Y-96620000D02*
X135020000Y-103600000D01*
X129988630Y-99811370D02*
X134308630Y-99811370D01*
X134308630Y-99811370D02*
X137500000Y-96620000D01*
X137500000Y-85540000D02*
X139720000Y-87760000D01*
X139720000Y-87760000D02*
X139720000Y-94400000D01*
D26*
X84600000Y-94000000D02*
X89600000Y-99000000D01*
X89600000Y-99000000D02*
X110000000Y-99000000D01*
X84600000Y-71478680D02*
X84600000Y-94000000D01*
X79000000Y-68000000D02*
X81121320Y-68000000D01*
X81121320Y-68000000D02*
X84600000Y-71478680D01*
D25*
X110000000Y-99000000D02*
X113000000Y-99000000D01*
X121800000Y-95800000D02*
X126700000Y-95800000D01*
X126700000Y-95800000D02*
X128500000Y-94000000D01*
X118600000Y-99000000D02*
X121800000Y-95800000D01*
X110000000Y-99000000D02*
X118600000Y-99000000D01*
X129988630Y-99811370D02*
X127800000Y-102000000D01*
X127800000Y-102000000D02*
X113000000Y-102000000D01*
X113000000Y-102000000D02*
X110000000Y-99000000D01*
X139720000Y-94400000D02*
X137500000Y-96620000D01*
X100380000Y-78000000D02*
X100380000Y-76620000D01*
X100380000Y-76620000D02*
X103000000Y-74000000D01*
X106800000Y-80600000D02*
X104200000Y-78000000D01*
X104200000Y-78000000D02*
X100380000Y-78000000D01*
X106800000Y-82800000D02*
X106800000Y-80600000D01*
X110000000Y-86000000D02*
X106800000Y-82800000D01*
X110000000Y-99000000D02*
X110000000Y-86000000D01*
X110000000Y-99000000D02*
X110000000Y-98620000D01*
X110000000Y-98620000D02*
X103000000Y-91620000D01*
X115500000Y-85620000D02*
X115500000Y-83080000D01*
X118000000Y-91000000D02*
X118000000Y-88120000D01*
X118000000Y-88120000D02*
X115500000Y-85620000D01*
X110000000Y-99000000D02*
X118000000Y-91000000D01*
X100380000Y-89000000D02*
X103000000Y-91620000D01*
M02*
